<?xml version="1.0" encoding="UTF-8"?>
<svg id="Calque_2" xmlns="http://www.w3.org/2000/svg" viewBox="0 0 48 48">
  <defs>
    <style>
      .cls-1 {
        fill: #fff;
      }

      .cls-2 {
        fill: #da8566;
      }
    </style>
  </defs>
  <g id="Calque_1-2" data-name="Calque_1">
    <circle class="cls-2" cx="24" cy="24" r="24"/>
    <g>
      <path class="cls-1" d="M32.77,29.21c0,.33.07.62.25.9,1.38,2.28,1.73,4.74,1.17,7.32-.31,1.44-1.12,2.15-2.31,2.18-1.19.03-2.31-.83-2.72-2.08-.55-1.66-.23-3.26.29-4.85.21-.64.48-1.27.84-1.83.43-.67.6-1.38.6-2.17-.02-3.23-.03-6.46-.03-9.68,0-.78.02-1.56.03-2.34,0-.51.02-1.03-.11-1.53-.03-.1-.04-.21-.04-.32-.01-.6.36-1.18.8-1.25.44-.07.87.3,1.07.93.13.4.11.81.11,1.21,0,2.16,0,4.33,0,6.49M32.16,22.25c0-2.27,0-4.54,0-6.81,0-.3.01-.61-.1-.89-.09-.21-.18-.48-.46-.44-.24.03-.28.3-.33.5-.02.08-.03.18,0,.26.24.91.12,1.84.12,2.76.01,3.6.02,7.2.04,10.81,0,.92-.15,1.78-.64,2.59-.63,1.05-1.05,2.21-1.26,3.43-.2,1.14-.23,2.26.32,3.33.45.88,1.31,1.39,2.2,1.29.82-.09,1.37-.62,1.61-1.67.57-2.46.21-4.79-1.06-6.97-.2-.34-.37-.68-.37-1.09"/>
      <path class="cls-1" d="M33.1,35.04c-.07.6-.15,1.18-.61,1.61-.39.36-.96.36-1.34,0-.58-.57-.86-1.93-.54-2.68.21-.51.59-.9,1.13-.92.49-.02.8.38,1.04.8.22.38.3.79.31,1.21ZM32.57,35.01c.02-.33-.07-.64-.24-.91-.14-.24-.3-.52-.63-.49-.34.03-.5.3-.62.59-.22.52.02,1.66.43,2.05.26.25.58.19.78-.16.18-.33.26-.69.28-1.07Z"/>
    </g>
    <path class="cls-1" d="M24,22.76c-1.7-.08-3.27-.15-4.93-.22,0,.52,0,1.04,0,1.57,0,3.52,0,7.04,0,10.56,0,1.1-.16,1.25-1.29,1.26-.21,0-.41,0-.62,0-1.04-.02-1.24-.21-1.24-1.24,0-4.11-.02-8.22.02-12.32,0-.69-.19-1.03-.82-1.32-1.92-.9-3.48-2.27-4.8-3.91-.51-.64-.44-1.06.22-1.54.17-.12.35-.22.5-.35.64-.53,1.13-.45,1.72.19.89.97,1.92,1.82,2.89,2.73.08-.06.16-.12.24-.18.01-.28.04-.56.04-.84,0-1.82-.03-3.64.01-5.46.08-3.01,2.59-5.28,5.73-5.23,3.1.05,5.49,2.37,5.49,5.36,0,5.37,0,10.74,0,16.11,0,1.13-.13,1.25-1.27,1.26-.26,0-.53-.01-.79,0-.8.05-1.1-.35-1.09-1.12.02-1.76,0-3.51,0-5.29ZM24,19.87c0-2.89.01-5.52,0-8.16,0-1.4-.99-2.34-2.4-2.36-1.41-.02-2.49.89-2.51,2.26-.04,2.4-.02,4.8,0,7.21,0,.21.24.59.4.61,1.47.18,2.94.29,4.51.44Z"/>
  </g>
</svg>