<?xml version="1.0" encoding="UTF-8"?>
<svg id="Calque_2" xmlns="http://www.w3.org/2000/svg" viewBox="0 0 202.9 89.97">
  <defs>
    <style>
      .cls-1, .cls-2, .cls-3, .cls-4 {
        fill: #fff;
      }

      .cls-1, .cls-4 {
        stroke: #fff;
        stroke-miterlimit: 10;
      }

      .cls-5 {
        letter-spacing: .01em;
      }

      .cls-3 {
        font-family: AcuminVariableConcept, 'Acumin Variable Concept';
        font-size: 8.48px;
        font-variation-settings: 'wght' 194, 'wdth' 100, 'slnt' 0;
      }

      .cls-4 {
        stroke-width: 2px;
      }

      .cls-6 {
        letter-spacing: -.02em;
      }
    </style>
  </defs>
  <g id="Calque_1-2" data-name="Calque_1">
    <g>
      <g>
        <path class="cls-2" d="M160.59,22.87v8.64c3.5.27,6.84-.2,10.1-1.22,2.31-.72,4.88,1.47,4.3,3.84-.14.58-.94,1.29-1.54,1.42-3.61.73-7.25,1.32-10.89,1.92-.61.1-1.26.01-1.97.01v20.78c2.33,0,4.65,0,6.97,0,2.73,0,4.23,2.57,2.8,4.92-.27.45-1.05.81-1.6.83-3.77.07-7.53.1-11.3.02-2.15-.04-3.21-1.19-3.21-3.38-.02-13.36-.02-26.72,0-40.07,0-2.35,1.13-3.43,3.51-3.45,3.53-.03,7.06-.03,10.59,0,2.02.02,2.28.39,2.27,3.04,0,2.2-.39,2.69-2.26,2.71-2.52.03-5.05,0-7.76,0Z"/>
        <path class="cls-2" d="M199.61,58.87c.03,2.15-1.73,3.98-3.84,3.99-2.08.01-3.94-1.85-3.93-3.94,0-2.08,1.7-3.8,3.79-3.85,2.22-.05,3.96,1.6,3.98,3.79Z"/>
        <path class="cls-2" d="M28.14,43.43c-3.41-.15-6.56-.3-9.89-.45,0,1.05,0,2.1,0,3.14,0,7.07,0,14.14,0,21.2,0,2.2-.32,2.51-2.58,2.53-.41,0-.82,0-1.24,0-2.09-.04-2.49-.41-2.5-2.48,0-8.25-.04-16.49.03-24.74.01-1.38-.39-2.07-1.65-2.66-3.85-1.8-6.98-4.55-9.63-7.86-1.03-1.28-.89-2.13.43-3.09.33-.24.7-.44,1.01-.71,1.29-1.07,2.27-.9,3.45.38,1.79,1.95,3.86,3.66,5.8,5.47.16-.12.32-.25.47-.37.03-.56.08-1.12.08-1.69,0-3.65-.07-7.31.03-10.95.16-6.04,5.2-10.59,11.49-10.49,6.22.1,11.01,4.76,11.02,10.75.02,10.78,0,21.56,0,32.34,0,2.27-.25,2.52-2.55,2.53-.53,0-1.06-.03-1.59,0-1.6.09-2.21-.7-2.2-2.25.04-3.52.01-7.05.01-10.63ZM28.14,37.63c0-5.8.03-11.09-.01-16.37-.02-2.82-1.98-4.7-4.81-4.74-2.84-.04-4.99,1.79-5.04,4.54-.09,4.82-.05,9.64,0,14.46,0,.43.48,1.19.8,1.23,2.94.36,5.9.59,9.05.88Z"/>
      </g>
      <path class="cls-1" d="M105.98,56.42v-31.66c0-1.34,1.07-2.44,2.41-2.47,3.01-.09,5.96-.25,8.85.14,4.98.66,7.78,6.7,5.79,11.59,0,0,0,.01,0,.02-.46,1.11-.14,2.4.86,3.07.49.32.96.66,1.39,1.03,3.82,3.28,5,7.51,3.81,12.29-1.16,4.69-5,8.05-9.87,8.39-3.55.25-7.13.13-10.8.08-1.35-.02-2.44-1.12-2.44-2.48ZM109.67,52.68c.01,1.33,1.08,2.41,2.41,2.45,2.55.07,4.98.19,7.36-.12,4.39-.56,6.59-4.1,6.11-8.98-.36-3.73-3.88-6.9-7.65-6.88-4.27.02-8.01,3.34-8.19,7.45-.09,2.01-.06,4.02-.04,6.08ZM109.78,34.36c0,1.69,1.66,2.88,3.26,2.35,1.16-.39,2.31-.77,3.45-1.16,2.3-.77,3.85-3.03,3.64-5.27-.22-2.29-1.99-4.38-4.16-4.55-1.24-.1-2.49-.09-3.76-.07-1.35.02-2.43,1.13-2.43,2.48v6.23Z"/>
      <path class="cls-1" d="M139.07,16.69v3.77h.05v8.12c0,4.88,0,9.6,0,14.55,1.63,0,3.25,0,4.88,0,1.91,0,2.96,1.8,1.96,3.44-.19.31-.74.57-1.12.58-2.64.05-5.27.07-7.91.01-1.51-.03-2.25-.83-2.25-2.36-.01-9.35-.02-18.7,0-28.06,0-1.65.79-2.4,2.46-2.42,0,0,1.94-.07,1.94,2.36Z"/>
      <path class="cls-2" d="M69.64,43.79l-.24-4.95c-.29-5.79-.57-11.39-.86-17.25,1.93-.1,3.86-.19,5.79-.29,2.27-.12,3.41-2.31,2.12-4.2-.25-.36-.91-.63-1.37-.62-3.1.09-6.2.23-9.3.44-.16-.01-.32-.02-.49-.02-3.13.09-6.26.27-9.38.48-.46.03-1.09.37-1.3.75-1.1,2.01.26,4.08,2.53,3.97,1.93-.09,3.86-.19,5.79-.29.29,5.86.57,11.46.86,17.25l.25,4.95c.08,1.59.15,3.12.23,4.68v.27s.28,4.21.28,4.21c-.18,2.74,1.56,2.8,2.2,2.73.34,0,.71-.02,1.12-.04,0,0,2.71.4,2.16-2.92l-.22-4.48"/>
      <path class="cls-4" d="M78.41,32.72c.94-1.82,2.24-3.23,3.89-4.24,1.65-1,3.49-1.51,5.51-1.51s3.73.45,5.2,1.33c.63.38,1.19.8,1.68,1.27.62.58,1.6.17,1.6-.69v-.55c0-.54.42-.97.94-.97h1.94c.52,0,.94.44.94.97v21.62c0,.54-.42.97-.94.97h-1.94c-.52,0-.94-.44-.94-.97v-.64c0-.86-.99-1.28-1.6-.69-.51.49-1.09.93-1.75,1.33-1.48.9-3.21,1.35-5.18,1.35s-3.86-.52-5.49-1.55c-1.64-1.03-2.93-2.48-3.87-4.34s-1.41-3.99-1.41-6.37.47-4.52,1.41-6.34ZM95.27,34.46c-.69-1.32-1.63-2.33-2.81-3.03-1.18-.7-2.48-1.05-3.89-1.05s-2.71.34-3.87,1.03c-1.16.69-2.1,1.69-2.79,3.01-.69,1.32-1.04,2.87-1.04,4.64s.35,3.38,1.04,4.71c.69,1.33,1.62,2.35,2.79,3.05,1.17.7,2.46,1.05,3.87,1.05s2.71-.35,3.89-1.05c1.18-.7,2.12-1.72,2.81-3.05.69-1.33,1.04-2.89,1.04-4.67s-.35-3.33-1.04-4.64Z"/>
      <text class="cls-3" transform="translate(56.93 80.88)"><tspan x="0" y="0" xml:space="preserve">T R A I T E U R S   &amp;   </tspan><tspan class="cls-5" x="80.18" y="0">C</tspan><tspan class="cls-6" x="85.95" y="0">O</tspan><tspan x="92.08" y="0">.</tspan></text>
      <path class="cls-2" d="M200.9,16.82c-.7,4.46-1.39,8.92-2.1,13.38-.1.63-.04,1.2.2,1.8,1.95,4.75,1.88,9.54.04,14.29-1.03,2.66-2.78,3.76-5.04,3.45-2.28-.31-4.15-2.28-4.56-4.78-.55-3.32.53-6.27,2-9.14.59-1.16,1.28-2.27,2.15-3.24,1.01-1.14,1.56-2.46,1.79-3.95.93-6.15,1.88-12.31,2.83-18.46.23-1.49.5-2.97.75-4.45.16-.98.35-1.95.24-2.95-.02-.2-.01-.41.02-.61C199.37.99,200.24,0,201.1,0c.86,0,1.57.83,1.75,2.09.12.79-.03,1.57-.15,2.34M201.76,3.78c.09-.57.2-1.15.07-1.73-.1-.43-.2-.96-.74-.97-.46,0-.62.48-.78.85-.07.15-.11.33-.09.5.18,1.81-.33,3.53-.6,5.28-1.06,6.86-2.12,13.73-3.15,20.59-.27,1.76-.81,3.34-1.98,4.75-1.52,1.82-2.65,3.89-3.42,6.15-.72,2.11-1.11,4.23-.38,6.43.6,1.81,2.08,3.03,3.8,3.11,1.6.07,2.8-.78,3.57-2.7,1.81-4.51,1.84-9.06.07-13.6-.28-.71-.5-1.4-.37-2.19.72-4.49,1.42-8.99,2.12-13.48"/>
      <path class="cls-2" d="M197.69,41.4c-.32,1.12-.63,2.2-1.65,2.88-.85.57-1.93.4-2.54-.42-.94-1.26-1.06-3.92-.23-5.26.56-.91,1.4-1.53,2.44-1.42.94.1,1.41.97,1.75,1.83.31.78.34,1.59.23,2.39ZM196.68,41.19c.13-.62.06-1.24-.18-1.81-.2-.49-.42-1.08-1.06-1.12-.65-.04-1.05.43-1.36.93-.58.93-.46,3.17.21,4.03.43.55,1.05.54,1.54-.08.45-.57.7-1.24.86-1.95Z"/>
    </g>
  </g>
</svg>